<svg xmlns="http://www.w3.org/2000/svg" xmlns:xlink="http://www.w3.org/1999/xlink" width="250" zoomAndPan="magnify" viewBox="0 0 187.5 187.499992" height="250" preserveAspectRatio="xMidYMid meet" version="1.0"><path fill="#ffffff" d="M 164.488281 184.910156 L 22.511719 184.910156 C 11.230469 184.910156 2.089844 175.769531 2.089844 164.488281 L 2.089844 22.511719 C 2.089844 11.230469 11.230469 2.089844 22.511719 2.089844 L 164.539062 2.089844 C 175.769531 2.089844 184.910156 11.230469 184.910156 22.511719 L 184.910156 164.539062 C 184.910156 175.769531 175.769531 184.910156 164.488281 184.910156 Z M 164.488281 184.910156 " fill-opacity="1" fill-rule="nonzero"/><path fill="#000000" d="M 164.488281 187 L 22.511719 187 C 10.082031 187 0 176.921875 0 164.488281 L 0 22.511719 C 0 10.082031 10.082031 0 22.511719 0 L 164.539062 0 C 176.921875 0 187 10.082031 187 22.511719 L 187 164.539062 C 187 176.921875 176.921875 187 164.488281 187 Z M 22.511719 4.179688 C 12.378906 4.179688 4.179688 12.378906 4.179688 22.511719 L 4.179688 164.539062 C 4.179688 174.621094 12.378906 182.824219 22.511719 182.824219 L 164.539062 182.824219 C 174.621094 182.824219 182.875 174.621094 182.875 164.488281 L 182.875 22.511719 C 182.875 12.433594 174.675781 4.179688 164.59375 4.179688 Z M 22.511719 4.179688 " fill-opacity="1" fill-rule="nonzero"/><path fill="#0c0b0b" d="M 111.78125 93.5 C 111.78125 94.097656 111.753906 94.695312 111.695312 95.292969 C 111.636719 95.886719 111.546875 96.480469 111.429688 97.066406 C 111.316406 97.65625 111.167969 98.234375 110.996094 98.808594 C 110.820312 99.378906 110.621094 99.945312 110.390625 100.496094 C 110.164062 101.050781 109.90625 101.589844 109.625 102.117188 C 109.34375 102.648438 109.035156 103.160156 108.703125 103.65625 C 108.371094 104.15625 108.011719 104.636719 107.632812 105.097656 C 107.253906 105.5625 106.851562 106.003906 106.429688 106.429688 C 106.003906 106.851562 105.5625 107.253906 105.097656 107.632812 C 104.636719 108.011719 104.15625 108.371094 103.65625 108.703125 C 103.160156 109.035156 102.648438 109.34375 102.117188 109.625 C 101.589844 109.90625 101.050781 110.164062 100.496094 110.390625 C 99.945312 110.621094 99.378906 110.820312 98.808594 110.996094 C 98.234375 111.167969 97.65625 111.316406 97.066406 111.429688 C 96.480469 111.546875 95.886719 111.636719 95.292969 111.695312 C 94.695312 111.753906 94.097656 111.78125 93.5 111.78125 C 92.902344 111.78125 92.304688 111.753906 91.707031 111.695312 C 91.113281 111.636719 90.519531 111.546875 89.933594 111.429688 C 89.347656 111.316406 88.765625 111.167969 88.195312 110.996094 C 87.621094 110.820312 87.058594 110.621094 86.503906 110.390625 C 85.949219 110.164062 85.410156 109.90625 84.882812 109.625 C 84.355469 109.34375 83.839844 109.035156 83.34375 108.703125 C 82.847656 108.371094 82.367188 108.011719 81.902344 107.632812 C 81.441406 107.253906 80.996094 106.851562 80.574219 106.429688 C 80.148438 106.003906 79.75 105.5625 79.367188 105.097656 C 78.988281 104.636719 78.632812 104.15625 78.300781 103.65625 C 77.96875 103.160156 77.660156 102.648438 77.378906 102.117188 C 77.09375 101.589844 76.839844 101.050781 76.609375 100.496094 C 76.382812 99.945312 76.179688 99.378906 76.003906 98.808594 C 75.832031 98.234375 75.6875 97.65625 75.570312 97.066406 C 75.453125 96.480469 75.363281 95.886719 75.304688 95.292969 C 75.246094 94.695312 75.21875 94.097656 75.21875 93.5 C 75.21875 92.902344 75.246094 92.304688 75.304688 91.707031 C 75.363281 91.113281 75.453125 90.519531 75.570312 89.933594 C 75.6875 89.347656 75.832031 88.765625 76.003906 88.195312 C 76.179688 87.621094 76.382812 87.058594 76.609375 86.503906 C 76.839844 85.949219 77.09375 85.410156 77.378906 84.882812 C 77.660156 84.355469 77.96875 83.839844 78.300781 83.34375 C 78.632812 82.847656 78.988281 82.367188 79.367188 81.902344 C 79.75 81.441406 80.148438 80.996094 80.574219 80.574219 C 80.996094 80.148438 81.441406 79.75 81.902344 79.367188 C 82.367188 78.988281 82.847656 78.632812 83.34375 78.300781 C 83.839844 77.96875 84.355469 77.660156 84.882812 77.378906 C 85.410156 77.09375 85.949219 76.839844 86.503906 76.609375 C 87.058594 76.382812 87.621094 76.179688 88.195312 76.003906 C 88.765625 75.832031 89.347656 75.6875 89.933594 75.570312 C 90.519531 75.453125 91.113281 75.363281 91.707031 75.304688 C 92.304688 75.246094 92.902344 75.21875 93.5 75.21875 C 94.097656 75.21875 94.695312 75.246094 95.292969 75.304688 C 95.886719 75.363281 96.480469 75.453125 97.066406 75.570312 C 97.65625 75.6875 98.234375 75.832031 98.808594 76.003906 C 99.378906 76.179688 99.945312 76.382812 100.496094 76.609375 C 101.050781 76.839844 101.589844 77.09375 102.117188 77.378906 C 102.648438 77.660156 103.160156 77.96875 103.65625 78.300781 C 104.15625 78.632812 104.636719 78.988281 105.097656 79.367188 C 105.5625 79.75 106.003906 80.148438 106.429688 80.574219 C 106.851562 80.996094 107.253906 81.441406 107.632812 81.902344 C 108.011719 82.367188 108.371094 82.847656 108.703125 83.34375 C 109.035156 83.839844 109.34375 84.355469 109.625 84.882812 C 109.90625 85.410156 110.164062 85.949219 110.390625 86.503906 C 110.621094 87.058594 110.820312 87.621094 110.996094 88.195312 C 111.167969 88.765625 111.316406 89.347656 111.429688 89.933594 C 111.546875 90.519531 111.636719 91.113281 111.695312 91.707031 C 111.753906 92.304688 111.78125 92.902344 111.78125 93.5 Z M 111.78125 93.5 " fill-opacity="1" fill-rule="nonzero"/></svg>