<svg xmlns="http://www.w3.org/2000/svg" xmlns:xlink="http://www.w3.org/1999/xlink" width="250" zoomAndPan="magnify" viewBox="0 0 187.5 187.499992" height="250" preserveAspectRatio="xMidYMid meet" version="1.0"><path fill="#ffffff" d="M 164.488281 184.910156 L 22.511719 184.910156 C 11.230469 184.910156 2.089844 175.769531 2.089844 164.488281 L 2.089844 22.511719 C 2.089844 11.230469 11.230469 2.089844 22.511719 2.089844 L 164.539062 2.089844 C 175.769531 2.089844 184.910156 11.230469 184.910156 22.511719 L 184.910156 164.539062 C 184.910156 175.769531 175.769531 184.910156 164.488281 184.910156 Z M 164.488281 184.910156 " fill-opacity="1" fill-rule="nonzero"/><path fill="#000000" d="M 164.488281 187 L 22.511719 187 C 10.082031 187 0 176.921875 0 164.488281 L 0 22.511719 C 0 10.082031 10.082031 0 22.511719 0 L 164.539062 0 C 176.921875 0 187 10.082031 187 22.511719 L 187 164.539062 C 187 176.921875 176.921875 187 164.488281 187 Z M 22.511719 4.179688 C 12.378906 4.179688 4.179688 12.378906 4.179688 22.511719 L 4.179688 164.539062 C 4.179688 174.621094 12.378906 182.824219 22.511719 182.824219 L 164.539062 182.824219 C 174.621094 182.824219 182.875 174.621094 182.875 164.488281 L 182.875 22.511719 C 182.875 12.433594 174.675781 4.179688 164.59375 4.179688 Z M 22.511719 4.179688 " fill-opacity="1" fill-rule="nonzero"/><path fill="#0c0b0b" d="M 156.445312 48.789062 C 156.445312 49.386719 156.414062 49.984375 156.355469 50.578125 C 156.296875 51.175781 156.210938 51.765625 156.09375 52.355469 C 155.976562 52.941406 155.832031 53.523438 155.65625 54.09375 C 155.484375 54.667969 155.28125 55.230469 155.050781 55.785156 C 154.824219 56.335938 154.566406 56.878906 154.285156 57.40625 C 154.003906 57.933594 153.695312 58.445312 153.363281 58.945312 C 153.03125 59.441406 152.671875 59.921875 152.292969 60.386719 C 151.914062 60.847656 151.511719 61.292969 151.089844 61.714844 C 150.664062 62.136719 150.222656 62.539062 149.757812 62.917969 C 149.296875 63.300781 148.816406 63.65625 148.320312 63.988281 C 147.820312 64.320312 147.308594 64.628906 146.78125 64.910156 C 146.25 65.191406 145.710938 65.449219 145.15625 65.679688 C 144.605469 65.90625 144.042969 66.109375 143.46875 66.28125 C 142.894531 66.457031 142.316406 66.601562 141.726562 66.71875 C 141.140625 66.835938 140.550781 66.921875 139.953125 66.980469 C 139.359375 67.039062 138.761719 67.070312 138.160156 67.070312 C 137.5625 67.070312 136.964844 67.039062 136.371094 66.980469 C 135.773438 66.921875 135.183594 66.835938 134.59375 66.71875 C 134.007812 66.601562 133.425781 66.457031 132.855469 66.28125 C 132.28125 66.109375 131.71875 65.90625 131.164062 65.679688 C 130.613281 65.449219 130.070312 65.191406 129.542969 64.910156 C 129.015625 64.628906 128.503906 64.320312 128.003906 63.988281 C 127.507812 63.65625 127.027344 63.300781 126.5625 62.917969 C 126.101562 62.539062 125.65625 62.136719 125.234375 61.714844 C 124.8125 61.292969 124.410156 60.847656 124.027344 60.386719 C 123.648438 59.921875 123.292969 59.441406 122.960938 58.945312 C 122.628906 58.445312 122.320312 57.933594 122.039062 57.40625 C 121.753906 56.878906 121.5 56.335938 121.269531 55.785156 C 121.042969 55.230469 120.839844 54.667969 120.667969 54.09375 C 120.492188 53.523438 120.347656 52.941406 120.230469 52.355469 C 120.113281 51.765625 120.027344 51.175781 119.96875 50.578125 C 119.910156 49.984375 119.878906 49.386719 119.878906 48.789062 C 119.878906 48.1875 119.910156 47.589844 119.96875 46.996094 C 120.027344 46.398438 120.113281 45.808594 120.230469 45.222656 C 120.347656 44.632812 120.492188 44.054688 120.667969 43.480469 C 120.839844 42.90625 121.042969 42.34375 121.269531 41.792969 C 121.5 41.238281 121.753906 40.699219 122.039062 40.167969 C 122.320312 39.640625 122.628906 39.128906 122.960938 38.628906 C 123.292969 38.132812 123.648438 37.652344 124.027344 37.1875 C 124.410156 36.726562 124.8125 36.285156 125.234375 35.859375 C 125.65625 35.4375 126.101562 35.035156 126.5625 34.65625 C 127.027344 34.273438 127.507812 33.917969 128.003906 33.585938 C 128.503906 33.253906 129.015625 32.945312 129.542969 32.664062 C 130.070312 32.382812 130.613281 32.125 131.164062 31.898438 C 131.71875 31.667969 132.28125 31.464844 132.855469 31.292969 C 133.425781 31.117188 134.007812 30.972656 134.59375 30.855469 C 135.183594 30.738281 135.773438 30.652344 136.371094 30.59375 C 136.964844 30.535156 137.5625 30.503906 138.160156 30.503906 C 138.761719 30.503906 139.359375 30.535156 139.953125 30.59375 C 140.550781 30.652344 141.140625 30.738281 141.726562 30.855469 C 142.316406 30.972656 142.894531 31.117188 143.46875 31.292969 C 144.042969 31.464844 144.605469 31.667969 145.15625 31.898438 C 145.710938 32.125 146.25 32.382812 146.78125 32.664062 C 147.308594 32.945312 147.820312 33.253906 148.320312 33.585938 C 148.816406 33.917969 149.296875 34.273438 149.757812 34.65625 C 150.222656 35.035156 150.664062 35.4375 151.089844 35.859375 C 151.511719 36.285156 151.914062 36.726562 152.292969 37.1875 C 152.671875 37.652344 153.03125 38.132812 153.363281 38.628906 C 153.695312 39.128906 154.003906 39.640625 154.285156 40.167969 C 154.566406 40.699219 154.824219 41.238281 155.050781 41.792969 C 155.28125 42.34375 155.484375 42.90625 155.65625 43.480469 C 155.832031 44.054688 155.976562 44.632812 156.09375 45.222656 C 156.210938 45.808594 156.296875 46.398438 156.355469 46.996094 C 156.414062 47.589844 156.445312 48.1875 156.445312 48.789062 Z M 156.445312 48.789062 " fill-opacity="1" fill-rule="nonzero"/><path fill="#0c0b0b" d="M 67.070312 138.160156 C 67.070312 138.761719 67.039062 139.359375 66.980469 139.953125 C 66.921875 140.550781 66.835938 141.140625 66.71875 141.726562 C 66.601562 142.316406 66.457031 142.894531 66.28125 143.46875 C 66.109375 144.042969 65.90625 144.605469 65.679688 145.15625 C 65.449219 145.710938 65.191406 146.25 64.910156 146.78125 C 64.628906 147.308594 64.320312 147.820312 63.988281 148.320312 C 63.65625 148.816406 63.300781 149.296875 62.917969 149.757812 C 62.539062 150.222656 62.136719 150.664062 61.714844 151.089844 C 61.292969 151.511719 60.847656 151.914062 60.386719 152.292969 C 59.921875 152.671875 59.441406 153.03125 58.945312 153.363281 C 58.445312 153.695312 57.933594 154.003906 57.40625 154.285156 C 56.878906 154.566406 56.335938 154.824219 55.785156 155.050781 C 55.230469 155.28125 54.667969 155.484375 54.09375 155.65625 C 53.523438 155.832031 52.941406 155.976562 52.355469 156.09375 C 51.765625 156.210938 51.175781 156.296875 50.578125 156.355469 C 49.984375 156.414062 49.386719 156.445312 48.789062 156.445312 C 48.1875 156.445312 47.589844 156.414062 46.996094 156.355469 C 46.398438 156.296875 45.808594 156.210938 45.222656 156.09375 C 44.632812 155.976562 44.054688 155.832031 43.480469 155.65625 C 42.90625 155.484375 42.34375 155.28125 41.792969 155.050781 C 41.238281 154.824219 40.699219 154.566406 40.167969 154.285156 C 39.640625 154.003906 39.128906 153.695312 38.628906 153.363281 C 38.132812 153.03125 37.652344 152.671875 37.1875 152.292969 C 36.726562 151.914062 36.285156 151.511719 35.859375 151.089844 C 35.4375 150.664062 35.035156 150.222656 34.65625 149.757812 C 34.273438 149.296875 33.917969 148.816406 33.585938 148.320312 C 33.253906 147.820312 32.945312 147.308594 32.664062 146.78125 C 32.382812 146.25 32.125 145.710938 31.898438 145.15625 C 31.667969 144.605469 31.464844 144.042969 31.292969 143.46875 C 31.117188 142.894531 30.972656 142.316406 30.855469 141.726562 C 30.738281 141.140625 30.652344 140.550781 30.59375 139.953125 C 30.535156 139.359375 30.503906 138.761719 30.503906 138.160156 C 30.503906 137.5625 30.535156 136.964844 30.59375 136.371094 C 30.652344 135.773438 30.738281 135.183594 30.855469 134.59375 C 30.972656 134.007812 31.117188 133.425781 31.292969 132.855469 C 31.464844 132.28125 31.667969 131.71875 31.898438 131.164062 C 32.125 130.613281 32.382812 130.070312 32.664062 129.542969 C 32.945312 129.015625 33.253906 128.503906 33.585938 128.003906 C 33.917969 127.507812 34.273438 127.027344 34.65625 126.5625 C 35.035156 126.101562 35.4375 125.65625 35.859375 125.234375 C 36.285156 124.8125 36.726562 124.410156 37.1875 124.027344 C 37.652344 123.648438 38.132812 123.292969 38.628906 122.960938 C 39.128906 122.628906 39.640625 122.320312 40.167969 122.039062 C 40.699219 121.753906 41.238281 121.5 41.792969 121.269531 C 42.34375 121.042969 42.90625 120.839844 43.480469 120.667969 C 44.054688 120.492188 44.632812 120.347656 45.222656 120.230469 C 45.808594 120.113281 46.398438 120.027344 46.996094 119.96875 C 47.589844 119.910156 48.1875 119.878906 48.789062 119.878906 C 49.386719 119.878906 49.984375 119.910156 50.578125 119.96875 C 51.175781 120.027344 51.765625 120.113281 52.355469 120.230469 C 52.941406 120.347656 53.523438 120.492188 54.09375 120.667969 C 54.667969 120.839844 55.230469 121.042969 55.785156 121.269531 C 56.335938 121.5 56.878906 121.753906 57.40625 122.039062 C 57.933594 122.320312 58.445312 122.628906 58.945312 122.960938 C 59.441406 123.292969 59.921875 123.648438 60.386719 124.027344 C 60.847656 124.410156 61.292969 124.8125 61.714844 125.234375 C 62.136719 125.65625 62.539062 126.101562 62.917969 126.5625 C 63.300781 127.027344 63.65625 127.507812 63.988281 128.003906 C 64.320312 128.503906 64.628906 129.015625 64.910156 129.542969 C 65.191406 130.070312 65.449219 130.613281 65.679688 131.164062 C 65.90625 131.71875 66.109375 132.28125 66.28125 132.855469 C 66.457031 133.425781 66.601562 134.007812 66.71875 134.59375 C 66.835938 135.183594 66.921875 135.773438 66.980469 136.371094 C 67.039062 136.964844 67.070312 137.5625 67.070312 138.160156 Z M 67.070312 138.160156 " fill-opacity="1" fill-rule="nonzero"/></svg>