<svg xmlns="http://www.w3.org/2000/svg" xmlns:xlink="http://www.w3.org/1999/xlink" width="250" zoomAndPan="magnify" viewBox="0 0 187.5 187.499992" height="250" preserveAspectRatio="xMidYMid meet" version="1.0"><path fill="#ffffff" d="M 164.488281 184.910156 L 22.511719 184.910156 C 11.230469 184.910156 2.089844 175.769531 2.089844 164.488281 L 2.089844 22.511719 C 2.089844 11.230469 11.230469 2.089844 22.511719 2.089844 L 164.539062 2.089844 C 175.769531 2.089844 184.910156 11.230469 184.910156 22.511719 L 184.910156 164.539062 C 184.910156 175.769531 175.769531 184.910156 164.488281 184.910156 Z M 164.488281 184.910156 " fill-opacity="1" fill-rule="nonzero"/><path fill="#010101" d="M 164.488281 187 L 22.511719 187 C 10.082031 187 0 176.921875 0 164.488281 L 0 22.511719 C 0 10.082031 10.082031 0 22.511719 0 L 164.539062 0 C 176.921875 0 187 10.082031 187 22.511719 L 187 164.539062 C 187 176.921875 176.921875 187 164.488281 187 Z M 22.511719 4.179688 C 12.378906 4.179688 4.179688 12.378906 4.179688 22.511719 L 4.179688 164.539062 C 4.179688 174.621094 12.378906 182.824219 22.511719 182.824219 L 164.539062 182.824219 C 174.621094 182.824219 182.875 174.621094 182.875 164.488281 L 182.875 22.511719 C 182.875 12.433594 174.675781 4.179688 164.59375 4.179688 Z M 22.511719 4.179688 " fill-opacity="1" fill-rule="nonzero"/><path fill="#0c0b0b" d="M 156.445312 48.789062 C 156.445312 38.707031 148.242188 30.503906 138.160156 30.503906 C 128.082031 30.503906 119.878906 38.707031 119.878906 48.789062 C 119.878906 58.867188 128.082031 67.070312 138.160156 67.070312 C 148.242188 67.070312 156.445312 58.921875 156.445312 48.789062 Z M 67.070312 138.160156 C 67.070312 128.082031 58.867188 119.878906 48.789062 119.878906 C 38.707031 119.878906 30.503906 128.082031 30.503906 138.160156 C 30.503906 148.242188 38.707031 156.445312 48.789062 156.445312 C 58.867188 156.445312 67.070312 148.296875 67.070312 138.160156 Z M 111.78125 93.5 C 111.78125 83.417969 103.582031 75.21875 93.5 75.21875 C 83.417969 75.21875 75.21875 83.417969 75.21875 93.5 C 75.21875 103.582031 83.417969 111.78125 93.5 111.78125 C 103.582031 111.78125 111.78125 103.582031 111.78125 93.5 Z M 111.78125 93.5 " fill-opacity="1" fill-rule="nonzero"/></svg>