<svg xmlns="http://www.w3.org/2000/svg" xmlns:xlink="http://www.w3.org/1999/xlink" width="250" zoomAndPan="magnify" viewBox="0 0 187.5 187.499992" height="250" preserveAspectRatio="xMidYMid meet" version="1.0"><path fill="#ffffff" d="M 2.089844 164.488281 L 2.089844 22.511719 C 2.089844 11.230469 11.230469 2.089844 22.511719 2.089844 L 164.488281 2.089844 C 175.769531 2.089844 184.910156 11.230469 184.910156 22.511719 L 184.910156 164.539062 C 184.910156 175.769531 175.769531 184.910156 164.488281 184.910156 L 22.460938 184.910156 C 11.230469 184.910156 2.089844 175.769531 2.089844 164.488281 Z M 2.089844 164.488281 " fill-opacity="1" fill-rule="nonzero"/><path fill="#010101" d="M 0 164.488281 L 0 22.511719 C 0 10.082031 10.082031 0 22.511719 0 L 164.488281 0 C 176.921875 0 187 10.082031 187 22.511719 L 187 164.539062 C 187 176.921875 176.921875 187 164.488281 187 L 22.460938 187 C 10.082031 187 0 176.921875 0 164.488281 Z M 182.824219 22.511719 C 182.824219 12.378906 174.621094 4.179688 164.488281 4.179688 L 22.460938 4.179688 C 12.378906 4.179688 4.179688 12.378906 4.179688 22.511719 L 4.179688 164.539062 C 4.179688 174.621094 12.378906 182.875 22.511719 182.875 L 164.488281 182.875 C 174.570312 182.875 182.824219 174.675781 182.824219 164.59375 Z M 182.824219 22.511719 " fill-opacity="1" fill-rule="nonzero"/><path fill="#0c0b0b" d="M 138.214844 162.191406 C 148.296875 162.191406 156.496094 153.988281 156.496094 143.90625 C 156.496094 133.824219 148.296875 125.625 138.214844 125.625 C 128.132812 125.625 119.929688 133.824219 119.929688 143.90625 C 119.929688 154.042969 128.082031 162.191406 138.214844 162.191406 Z M 48.839844 61.324219 C 58.921875 61.324219 67.121094 53.121094 67.121094 43.042969 C 67.121094 32.960938 58.921875 24.757812 48.839844 24.757812 C 38.757812 24.757812 30.558594 32.960938 30.558594 43.042969 C 30.558594 53.121094 38.707031 61.324219 48.839844 61.324219 Z M 119.929688 43.042969 C 119.929688 53.121094 128.132812 61.324219 138.214844 61.324219 C 148.296875 61.324219 156.496094 53.121094 156.496094 43.042969 C 156.496094 32.960938 148.296875 24.757812 138.214844 24.757812 C 128.132812 24.757812 119.929688 32.960938 119.929688 43.042969 Z M 30.558594 143.90625 C 30.558594 153.988281 38.757812 162.191406 48.839844 162.191406 C 58.921875 162.191406 67.121094 153.988281 67.121094 143.90625 C 67.121094 133.824219 58.921875 125.625 48.839844 125.625 C 38.757812 125.625 30.558594 133.824219 30.558594 143.90625 Z M 138.214844 111.78125 C 148.296875 111.78125 156.496094 103.582031 156.496094 93.5 C 156.496094 83.417969 148.296875 75.21875 138.214844 75.21875 C 128.132812 75.21875 119.929688 83.417969 119.929688 93.5 C 119.929688 103.582031 128.082031 111.78125 138.214844 111.78125 Z M 48.839844 111.78125 C 58.921875 111.78125 67.121094 103.582031 67.121094 93.5 C 67.121094 83.417969 58.921875 75.21875 48.839844 75.21875 C 38.757812 75.21875 30.558594 83.417969 30.558594 93.5 C 30.558594 103.582031 38.707031 111.78125 48.839844 111.78125 Z M 48.839844 111.78125 " fill-opacity="1" fill-rule="nonzero"/></svg>